<svg width="32" height="32" viewBox="0 0 32 32" fill="none" xmlns="http://www.w3.org/2000/svg">
<path d="M24.0002 21C24.0002 23.3111 23.1891 25.2778 21.5668 26.9C19.9446 28.5222 17.9779 29.3334 15.6668 29.3334C13.3557 29.3334 11.3891 28.5222 9.76683 26.9C8.14461 25.2778 7.3335 23.3111 7.3335 21V8.66669C7.3335 7.00002 7.91683 5.58335 9.0835 4.41669C10.2502 3.25002 11.6668 2.66669 13.3335 2.66669C15.0002 2.66669 16.4168 3.25002 17.5835 4.41669C18.7502 5.58335 19.3335 7.00002 19.3335 8.66669V20.3334C19.3335 21.3556 18.9779 22.2222 18.2668 22.9334C17.5557 23.6445 16.6891 24 15.6668 24C14.6446 24 13.7779 23.6445 13.0668 22.9334C12.3557 22.2222 12.0002 21.3556 12.0002 20.3334V8.00002H14.6668V20.3334C14.6668 20.6222 14.7613 20.8611 14.9502 21.05C15.1391 21.2389 15.3779 21.3334 15.6668 21.3334C15.9557 21.3334 16.1946 21.2389 16.3835 21.05C16.5724 20.8611 16.6668 20.6222 16.6668 20.3334V8.66669C16.6446 7.73335 16.3168 6.94447 15.6835 6.30002C15.0502 5.65558 14.2668 5.33335 13.3335 5.33335C12.4002 5.33335 11.6113 5.65558 10.9668 6.30002C10.3224 6.94447 10.0002 7.73335 10.0002 8.66669V21C9.97794 22.5778 10.5224 23.9167 11.6335 25.0167C12.7446 26.1167 14.0891 26.6667 15.6668 26.6667C17.2224 26.6667 18.5446 26.1167 19.6335 25.0167C20.7224 23.9167 21.2891 22.5778 21.3335 21V8.00002H24.0002V21Z" fill="#6D6D73"/>
</svg>
