<svg width="24" height="24" viewBox="0 0 24 24" fill="none" xmlns="http://www.w3.org/2000/svg">
<g id="icon/audio">
<path id="Vector" d="M13.9998 14.814V9.18597C13.9998 6.04097 13.9998 4.46897 13.0748 4.07697C12.1488 3.68597 11.0598 4.79697 8.88176 7.02197C7.75376 8.17397 7.11076 8.42897 5.50576 8.42897C4.10276 8.42897 3.40076 8.42897 2.89576 8.77297C1.84976 9.48697 2.00976 10.882 2.00976 12C2.00976 13.118 1.85076 14.513 2.89776 15.227C3.40176 15.571 4.10376 15.571 5.50676 15.571C7.11176 15.571 7.75476 15.826 8.88276 16.978C11.0608 19.202 12.1498 20.314 13.0758 19.923C14.0008 19.531 14.0008 17.959 14.0008 14.813M16.9998 8.99997C17.6248 9.81997 17.9998 10.863 17.9998 12C17.9998 13.137 17.6248 14.18 16.9998 15M19.9998 6.99997C21.2498 8.36597 21.9998 10.106 21.9998 12C21.9998 13.894 21.2498 15.634 19.9998 17" stroke="#6D6D73" stroke-width="2" stroke-linecap="round" stroke-linejoin="round"/>
</g>
</svg>
