<svg width="32" height="32" viewBox="0 0 32 32" fill="none" xmlns="http://www.w3.org/2000/svg">
<path d="M15.9998 18.6667C14.8887 18.6667 13.9443 18.2778 13.1665 17.5C12.3887 16.7222 11.9998 15.7778 11.9998 14.6667V6.66669C11.9998 5.55558 12.3887 4.61113 13.1665 3.83335C13.9443 3.05558 14.8887 2.66669 15.9998 2.66669C17.1109 2.66669 18.0554 3.05558 18.8332 3.83335C19.6109 4.61113 19.9998 5.55558 19.9998 6.66669V14.6667C19.9998 15.7778 19.6109 16.7222 18.8332 17.5C18.0554 18.2778 17.1109 18.6667 15.9998 18.6667ZM14.6665 28V23.9C12.3554 23.5889 10.4443 22.5556 8.93317 20.8C7.42206 19.0445 6.6665 17 6.6665 14.6667H9.33317C9.33317 16.5111 9.98317 18.0834 11.2832 19.3834C12.5832 20.6834 14.1554 21.3334 15.9998 21.3334C17.8443 21.3334 19.4165 20.6834 20.7165 19.3834C22.0165 18.0834 22.6665 16.5111 22.6665 14.6667H25.3332C25.3332 17 24.5776 19.0445 23.0665 20.8C21.5554 22.5556 19.6443 23.5889 17.3332 23.9V28H14.6665ZM15.9998 16C16.3776 16 16.6943 15.8722 16.9498 15.6167C17.2054 15.3611 17.3332 15.0445 17.3332 14.6667V6.66669C17.3332 6.28891 17.2054 5.97224 16.9498 5.71669C16.6943 5.46113 16.3776 5.33335 15.9998 5.33335C15.6221 5.33335 15.3054 5.46113 15.0498 5.71669C14.7943 5.97224 14.6665 6.28891 14.6665 6.66669V14.6667C14.6665 15.0445 14.7943 15.3611 15.0498 15.6167C15.3054 15.8722 15.6221 16 15.9998 16Z" fill="#6D6D73"/>
</svg>
