<svg width="106" height="35" viewBox="0 0 106 35" fill="none" xmlns="http://www.w3.org/2000/svg">
<path d="M40.972 19.9271C40.972 18.4208 41.1838 17.0558 41.6074 15.8319C42.0546 14.5845 42.6783 13.5254 43.4785 12.6546C44.2787 11.7838 45.2201 11.1131 46.3028 10.6423C47.4089 10.1716 48.621 9.93628 49.939 9.93628C52.575 9.93628 54.6225 10.7718 56.0817 12.4428C57.5409 14.1138 58.2705 16.4321 58.2705 19.3975C58.2705 20.8567 58.0587 22.1983 57.6351 23.4221C57.2114 24.6224 56.6113 25.6697 55.8346 26.5641C55.0815 27.4349 54.1518 28.1174 53.0457 28.6117C51.963 29.1059 50.751 29.353 49.4094 29.353C46.7264 29.353 44.6435 28.5528 43.1608 26.9524C41.7016 25.352 40.972 23.0102 40.972 19.9271ZM49.7978 12.7605C46.3851 12.7605 44.6788 15.0552 44.6788 19.6447C44.6788 24.2341 46.3263 26.5288 49.6213 26.5288C51.3394 26.5288 52.5867 25.9404 53.3634 24.7636C54.1636 23.5868 54.5637 21.8217 54.5637 19.4681C54.5637 14.9964 52.9751 12.7605 49.7978 12.7605ZM66.2248 10.2893L66.5425 12.8664C68.2841 10.913 70.0611 9.93628 71.8733 9.93628C72.8383 9.93628 73.7679 10.0775 74.6623 10.3599L75.0506 10.4658L74.8741 15.5848H72.5794L72.0498 12.9371C70.0258 12.9371 68.3194 13.8549 66.9309 15.6907V26.1757L70.4612 27.0583V29H60.3998V27.0583L63.4005 26.1757V13.1136L60.3998 12.4075V10.4658L66.2248 10.2893ZM77.3398 11.3484C79.8816 10.407 82.2116 9.93628 84.3298 9.93628C86.4009 9.93628 87.9896 10.3599 89.0957 11.2072C90.2019 12.0309 90.755 13.4313 90.755 15.4083V26.1757L93.5792 26.8818V28.8235L88.1072 29L87.3659 26.5288C85.483 28.4116 83.6237 29.353 81.788 29.353C79.9522 29.353 78.5754 28.8941 77.6575 27.9762C76.7396 27.0583 76.2807 25.7521 76.2807 24.0576C76.2807 20.4096 78.9873 18.5856 84.4004 18.5856H87.2247V15.7613C87.2247 13.6431 86.1067 12.584 83.8709 12.584C82.5999 12.584 81.5526 12.7135 80.7289 12.9724L80.3052 13.1136L79.811 15.7613H77.5163L77.3398 11.3484ZM87.2247 20.8803H84.7534C82.9883 20.8803 81.7291 21.1156 80.976 21.5863C80.2464 22.0335 79.8816 22.7396 79.8816 23.7045C79.8816 24.6224 80.0934 25.3285 80.5171 25.8227C80.9642 26.2934 81.5997 26.5288 82.4234 26.5288C82.8235 26.5288 83.2236 26.4582 83.6237 26.317C84.0474 26.1757 84.4475 25.9992 84.824 25.7874C85.2242 25.5756 85.5772 25.352 85.8831 25.1167C86.1891 24.8578 86.4362 24.6224 86.6245 24.4106L87.2247 23.7045V20.8803ZM101.432 1.81655V26.1757L104.962 27.0583V29H94.83V27.0583L97.8308 26.1757V4.64081L94.83 3.93474V1.99307L101.432 1.81655Z" fill="#174F32"/>
<rect x="29.7878" y="4.9845" width="7.95135" height="4.03501" rx="0.176352" fill="#174F32"/>
<rect x="29.7878" y="24.8036" width="7.95135" height="4.03501" rx="0.176352" fill="#174F32"/>
<rect x="16.8522" width="12.9358" height="3.91634" rx="0.176352" fill="#174F32"/>
<rect x="16.8522" y="29.7878" width="12.9358" height="4.03501" rx="0.176352" fill="#174F32"/>
<rect x="8.02271" y="4.9845" width="12.9358" height="4.03501" rx="0.176352" fill="#174F32"/>
<rect x="8.02271" y="24.8036" width="12.9358" height="4.03501" rx="0.176352" fill="#174F32"/>
<rect x="3.91638" y="9.85022" width="12.9358" height="4.03501" rx="0.176352" fill="#174F32"/>
<rect x="3.91638" y="19.9379" width="12.9358" height="3.91634" rx="0.176352" fill="#174F32"/>
<rect y="14.9534" width="13.8852" height="3.91634" rx="0.176352" fill="#174F32"/>
</svg>
