
<svg xmlns="http://www.w3.org/2000/svg" xmlns:xlink="http://www.w3.org/1999/xlink" style="display:none">

    <symbol id="audio" width="24" height="24" viewBox="0 0 24 24" fill="none">
    <g >
    <path id="Vector" d="M13.9998 14.814V9.18597C13.9998 6.04097 13.9998 4.46897 13.0748 4.07697C12.1488 3.68597 11.0598 4.79697 8.88176 7.02197C7.75376 8.17397 7.11076 8.42897 5.50576 8.42897C4.10276 8.42897 3.40076 8.42897 2.89576 8.77297C1.84976 9.48697 2.00976 10.882 2.00976 12C2.00976 13.118 1.85076 14.513 2.89776 15.227C3.40176 15.571 4.10376 15.571 5.50676 15.571C7.11176 15.571 7.75476 15.826 8.88276 16.978C11.0608 19.202 12.1498 20.314 13.0758 19.923C14.0008 19.531 14.0008 17.959 14.0008 14.813M16.9998 8.99997C17.6248 9.81997 17.9998 10.863 17.9998 12C17.9998 13.137 17.6248 14.18 16.9998 15M19.9998 6.99997C21.2498 8.36597 21.9998 10.106 21.9998 12C21.9998 13.894 21.2498 15.634 19.9998 17" stroke="currentColor" stroke-width="2" stroke-linecap="round" stroke-linejoin="round"/>
    </g>
    </symbol>

    <symbol id="copy" width="24" height="24" viewBox="0 0 24 24" fill="none">
    <path d="M16 1H4C2.9 1 2 1.9 2 3V17H4V3H16V1ZM19 5H8C6.9 5 6 5.9 6 7V21C6 22.1 6.9 23 8 23H19C20.1 23 21 22.1 21 21V7C21 5.9 20.1 5 19 5ZM19 21H8V7H19V21Z" fill="currentColor"/>
    </symbol>

    <symbol id="fav" width="24" height="24" viewBox="0 0 24 24" fill="none">
    <g >
    <path id="Vector" d="M16.5 3C14.76 3 13.09 3.81 12 5.09C10.91 3.81 9.24 3 7.5 3C4.42 3 2 5.42 2 8.5C2 12.28 5.4 15.36 10.55 20.04L12 21.35L13.45 20.03C18.6 15.36 22 12.28 22 8.5C22 5.42 19.58 3 16.5 3ZM12.1 18.55L12 18.65L11.9 18.55C7.14 14.24 4 11.39 4 8.5C4 6.5 5.5 5 7.5 5C9.04 5 10.54 5.99 11.07 7.36H12.94C13.46 5.99 14.96 5 16.5 5C18.5 5 20 6.5 20 8.5C20 11.39 16.86 14.24 12.1 18.55Z" fill="currentColor"/>
    </g>
    </symbol>

    <symbol id="message-link" width="24" height="24" viewBox="0 0 24 24" fill="none" xmlns="http://www.w3.org/2000/svg">
    <path d="M6.4 18L5 16.6L14.6 7H6V5H18V17H16V8.4L6.4 18Z" fill="currentColor"/>
    </symbol>

</svg>
